<svg xmlns="http://www.w3.org/2000/svg" width="141.422" height="141.421" viewBox="0 0 141.422 141.421">
  <g id="Group_139" data-name="Group 139" transform="translate(-889.289 0)">
    <g id="Ellipse_5" data-name="Ellipse 5" transform="translate(910 20.711)" fill="none" stroke="#e87c00" stroke-width="2" stroke-dasharray="37 291">
      <circle cx="50" cy="50" r="50" stroke="none"/>
      <circle cx="50" cy="50" r="49" fill="none"/>
    </g>
    <g id="Ellipse_6" data-name="Ellipse 6" transform="translate(941.699 2.409) rotate(30)" fill="none" stroke="#e87c00" stroke-width="2" stroke-dasharray="37 291">
      <circle cx="50" cy="50" r="50" stroke="none"/>
      <circle cx="50" cy="50" r="49" fill="none"/>
    </g>
    <g id="Ellipse_7" data-name="Ellipse 7" transform="translate(978.301 2.409) rotate(60)" fill="none" stroke="#e87c00" stroke-width="2" stroke-dasharray="37 291">
      <circle cx="50" cy="50" r="50" stroke="none"/>
      <circle cx="50" cy="50" r="49" fill="none"/>
    </g>
    <g id="Ellipse_8" data-name="Ellipse 8" transform="translate(1010 20.711) rotate(90)" fill="none" stroke="#e87c00" stroke-width="2" stroke-dasharray="37 291">
      <circle cx="50" cy="50" r="50" stroke="none"/>
      <circle cx="50" cy="50" r="49" fill="none"/>
    </g>
    <g id="Ellipse_9" data-name="Ellipse 9" transform="translate(1028.301 52.409) rotate(120)" fill="none" stroke="#e87c00" stroke-width="2" stroke-dasharray="37 291">
      <circle cx="50" cy="50" r="50" stroke="none"/>
      <circle cx="50" cy="50" r="49" fill="none"/>
    </g>
    <g id="Ellipse_10" data-name="Ellipse 10" transform="translate(1030.711 70.711) rotate(135)" fill="none" stroke="#e87c00" stroke-width="2" stroke-dasharray="37 291">
      <circle cx="50" cy="50" r="50" stroke="none"/>
      <circle cx="50" cy="50" r="49" fill="none"/>
    </g>
    <g id="Ellipse_11" data-name="Ellipse 11" transform="matrix(-0.996, -0.087, 0.087, -0.996, 1005.452, 124.878)" fill="none" stroke="#e87c00" stroke-width="2" stroke-dasharray="21 291">
      <circle cx="50" cy="50" r="50" stroke="none"/>
      <circle cx="50" cy="50" r="49" fill="none"/>
    </g>
    <g id="Ellipse_12" data-name="Ellipse 12" transform="translate(960 141.421) rotate(-135)" fill="none" stroke="#e87c00" stroke-width="2" stroke-dasharray="21 291">
      <circle cx="50" cy="50" r="50" stroke="none"/>
      <circle cx="50" cy="50" r="49" fill="none"/>
    </g>
    <g id="Ellipse_13" data-name="Ellipse 13" transform="matrix(-0.259, -0.966, 0.966, -0.259, 924.645, 131.948)" fill="none" stroke="#e87c00" stroke-width="2" stroke-dasharray="21 291">
      <circle cx="50" cy="50" r="50" stroke="none"/>
      <circle cx="50" cy="50" r="49" fill="none"/>
    </g>
    <g id="Ellipse_14" data-name="Ellipse 14" transform="matrix(0.259, -0.966, 0.966, 0.259, 898.763, 106.066)" fill="none" stroke="#e87c00" stroke-width="2" stroke-dasharray="21 291">
      <circle cx="50" cy="50" r="50" stroke="none"/>
      <circle cx="50" cy="50" r="49" fill="none"/>
    </g>
    <path id="Icon_awesome-check" data-name="Icon awesome-check" d="M12.227,30.9.527,19.2a1.8,1.8,0,0,1,0-2.546L3.073,14.1a1.8,1.8,0,0,1,2.546,0L13.5,21.986,30.382,5.1a1.8,1.8,0,0,1,2.546,0L35.473,7.65a1.8,1.8,0,0,1,0,2.546l-20.7,20.7A1.8,1.8,0,0,1,12.227,30.9Z" transform="translate(942 52.711)" fill="#e87c00"/>
    <g id="Ellipse_15" data-name="Ellipse 15" transform="translate(889.289 70.711) rotate(-45)" fill="none" stroke="#e87c00" stroke-width="2" stroke-dasharray="21 291">
      <circle cx="50" cy="50" r="50" stroke="none"/>
      <circle cx="50" cy="50" r="49" fill="none"/>
    </g>
  </g>
</svg>
