<svg xmlns="http://www.w3.org/2000/svg" width="20.039" height="20" viewBox="0 0 20.039 20">
  <path id="bank-svgrepo-com" d="M19.169,4.395,9.933.6.784,4.481v2.7H19.169ZM10.333,5.8v.643H9.714v-.6a2.178,2.178,0,0,1-.855-.2L9.016,5a2.019,2.019,0,0,0,.862.212c.368,0,.541-.157.541-.384s-.172-.314-.588-.47c-.58-.2-.949-.494-.949-1.019a.993.993,0,0,1,.823-.964V1.729h.619v.6a1.6,1.6,0,0,1,.706.172l-.172.627a1.834,1.834,0,0,0-.7-.157c-.321,0-.494.157-.494.321,0,.212.2.306.643.478.6.212.878.525.878,1.019A1.024,1.024,0,0,1,10.333,5.8Zm8.938,12.858V17.111H18.5V9.53h.768V7.993H.776V9.538h.792v7.581h-.8v1.537H0V20.6H20.039V18.656ZM3.113,17.127V9.546H4.657v7.581Zm3.073,0V9.546H7.73v7.581Zm3.089,0V9.546h1.544v7.581Zm3.073,0V9.546h1.544v7.581Zm3.081,0V9.546h1.544v7.581Z" transform="translate(0 -0.6)" fill="#fff"/>
</svg>
